<svg width="560px" height="454px" viewBox="0 0 140 118" fill="none" xmlns="http://www.w3.org/2000/svg">
<rect width="560px" height="454px" transform="matrix(-1 0 0 1 140 0)" fill="#F4F0F0"/>
<path d="M20.8838 63.8641C21.843 74.6383 27.3662 84.2962 35.8109 91.4475C36.6047 92.1191 37.9276 92.0151 38.6111 91.2678L47.9048 81.0422C48.478 80.4179 48.4119 79.5571 47.7835 78.9706C43.3737 74.818 40.4412 69.4829 39.6805 63.5898C39.5703 62.7668 38.7986 62.1331 37.8394 62.1331H22.78C21.6996 62.1331 20.8067 62.9371 20.8838 63.8641Z" fill="#574B90"/>
<path d="M44.9613 97.6339C54.299 102.543 65.4116 104.842 77.1857 103.66C78.2992 103.546 79.0378 102.6 78.7843 101.673L75.3116 89.0448C75.1021 88.2786 74.2642 87.7868 73.3492 87.8341C67.1645 88.1651 61.3215 86.9733 56.2062 84.5895C55.4014 84.2206 54.3982 84.3719 53.8359 84.9963L44.4872 95.2691C43.8037 96.0164 44.0132 97.1326 44.9613 97.6339Z" fill="#574B90"/>
<path d="M111.935 83.4165C112.817 84.003 114.129 83.8138 114.702 83.0003C119.332 76.4355 122 68.7545 122 60.5249C122 38.7874 103.402 20.7958 79.1149 17.5796C77.9904 17.4282 76.9651 18.2134 76.9651 19.1877V32.3172C76.9651 33.0645 77.5935 33.6888 78.4424 33.8591C92.6419 36.6307 103.236 47.5089 103.236 60.5249C103.236 65.1884 101.858 69.5586 99.455 73.3991C99.014 74.0991 99.2014 74.9599 99.9291 75.4423L111.935 83.4165Z" fill="#574B90"/>
<path d="M88.5628 101.418C95.8059 99.1663 102.244 95.5245 107.525 90.8799C108.308 90.1989 108.186 89.0637 107.304 88.4773L95.3428 80.5409C94.6152 80.049 93.612 80.1152 92.9395 80.6449C90.2495 82.7638 87.1406 84.4854 83.7341 85.7151C82.8852 86.0178 82.4001 86.784 82.6096 87.5502L86.0933 100.235C86.3579 101.172 87.5155 101.739 88.5628 101.418Z" fill="#574B90"/>
<path d="M67.4621 14.004C41.8082 15.5553 21.0602 32.3172 17.4773 53.8561C17.3119 54.8304 18.2269 55.6912 19.3514 55.6912H38.4568C39.3388 55.6912 40.0664 55.1615 40.2648 54.4237C43.2414 43.2239 54.2107 34.6537 67.7708 33.3578C68.7189 33.2632 69.4575 32.601 69.4575 31.7781V15.631C69.4575 14.704 68.5425 13.9378 67.4621 14.004Z" fill="#574B90"/>
<path d="M86.347 68.5749H90.1063C91.1426 68.5749 91.9805 67.8559 91.9805 66.9668V57.2993C91.9805 56.4101 91.1426 55.6912 90.1063 55.6912H86.347C85.3107 55.6912 84.4728 56.4101 84.4728 57.2993V66.9668C84.4728 67.8559 85.3107 68.5749 86.347 68.5749Z" fill="#574B90"/>
<path d="M71.3427 68.5749H75.0911C76.1274 68.5749 76.9652 67.856 76.9652 66.9668V54.0832C76.9652 53.194 76.1274 52.4751 75.0911 52.4751H71.3427C70.3064 52.4751 69.4576 53.194 69.4576 54.0832V66.9668C69.4576 67.856 70.3064 68.5749 71.3427 68.5749Z" fill="#574B90"/>
<path d="M56.3273 68.5749H60.0756C61.1119 68.5749 61.9608 67.856 61.9608 66.9668V50.867C61.9608 49.9778 61.1119 49.2495 60.0756 49.2495H56.3273C55.291 49.2495 54.4532 49.9778 54.4532 50.867V66.9668C54.4532 67.856 55.291 68.5749 56.3273 68.5749Z" fill="#574B90"/>
</svg>
